<svg xmlns="http://www.w3.org/2000/svg" width="24" height="24" fill="none"><g clip-path="url(#unified_svg__a)"><path fill="currentColor" d="M21.777 17.532q-2.223 2.135-5.413 2.135a7.7 7.7 0 0 1-1.637-.184 6.6 6.6 0 0 1-1.445-.471q1.418-.943 2.25-2.75t.832-3.929q0-2.12-.832-3.928t-2.25-2.75q.6-.288 1.445-.472A7.7 7.7 0 0 1 16.364 5q3.191 0 5.413 2.135T24 12.333t-2.223 5.2m-7.513-1.034q-1.01 1.86-2.264 1.86t-2.264-1.86q-1.008-1.86-1.009-4.165t1.01-4.164Q10.744 6.31 12 6.31q1.253 0 2.264 1.86 1.009 1.86 1.009 4.164 0 2.305-1.01 4.165m-4.991 2.985a7.7 7.7 0 0 1-1.637.184q-3.19 0-5.413-2.135T0 12.333t2.223-5.198Q4.446 5 7.636 5q.791 0 1.637.183.845.184 1.445.472-1.418.942-2.25 2.75-.832 1.807-.832 3.928t.832 3.929 2.25 2.75q-.6.289-1.445.471"></path></g><defs><clipPath id="unified_svg__a"><path fill="#fff" d="M0 5h24v14.667H0z"></path></clipPath></defs></svg>