<svg width="410" height="133" viewBox="0 0 410 133" fill="none" xmlns="http://www.w3.org/2000/svg">
<path d="M294.847 32.1071C296.712 39.451 299.631 45.54 303.593 50.3972C308.934 57.0207 316.904 62.1568 327.527 65.7939L318.862 77.7162C308.517 73.2424 300.488 66.9559 294.766 58.845C292.124 55.1498 289.923 50.9782 288.162 46.3418C286.564 51.3036 284.478 55.6146 281.895 59.2517C276.995 65.9333 268.909 72.3593 257.637 78.5412L249.215 67.7809C258.842 63.4234 266.21 58.3221 271.33 52.4656C276.114 46.8414 279.173 40.0436 280.493 32.1071H252.598V20.3475H281.478C281.814 14.1656 281.918 7.5421 281.814 0.477051H294.685C294.569 5.83394 294.464 11.1792 294.349 16.5361C294.233 18.0816 294.186 19.2203 294.186 19.9292V20.3475H323.901V32.1071H294.847Z" fill="#3592F9"/>
<path d="M376.541 32.1071C378.406 39.451 381.326 45.54 385.287 50.3972C390.628 57.0207 398.598 62.1568 409.221 65.7939L400.556 77.7162C390.211 73.2424 382.183 66.9559 376.46 58.845C373.819 55.1498 371.618 50.9782 369.857 46.3418C368.258 51.3036 366.173 55.6146 363.589 59.2517C358.689 65.9333 350.603 72.3593 339.331 78.5412L330.909 67.7809C340.536 63.4234 347.904 58.3221 353.024 52.4656C357.809 46.8414 360.867 40.0436 362.188 32.1071H334.292V20.3475H363.172C363.508 14.1656 363.613 7.5421 363.508 0.477051H376.379C376.263 5.83394 376.159 11.1792 376.055 16.5361C375.939 18.0816 375.892 19.2203 375.892 19.9292V20.3475H405.595V32.1071H376.541Z" fill="#3592F9"/>
<path d="M184.353 10.5049C179.881 10.5049 176.244 14.142 176.244 18.639V35.0931C176.244 43.8082 175.583 50.6525 174.263 55.6259C172.942 60.3785 170.544 65.4449 167.08 70.8599C170.88 73.5093 174.668 76.1355 178.468 78.7268C182.268 72.0452 184.932 65.7819 186.473 59.937C188.014 53.4762 188.778 45.3653 188.778 35.6044V25.1695C188.778 23.4846 190.145 22.1134 191.825 22.1134H244.072V10.5281H184.341L184.353 10.5049Z" fill="#3592F9"/>
<path d="M218.249 7.68092C217.403 4.85722 216.523 2.27755 215.619 0L200.93 1.3247C201.358 2.56805 202.065 4.69454 203.05 7.69254H218.249V7.68092Z" fill="#3592F9"/>
<path d="M188.952 111.95C187.33 111.229 185.349 110.555 183.044 109.951C181.19 109.44 179.742 108.975 178.734 108.545C177.773 108.138 177.043 107.65 176.579 107.081C176.128 106.535 175.896 105.803 175.896 104.896C175.896 103.862 176.406 103.014 177.471 102.27C178.549 101.515 179.927 101.131 181.549 101.131C184.642 101.131 186.948 102.607 188.604 105.628L188.743 105.884L195.092 102.596L194.953 102.328C192.207 96.9597 187.735 94.229 181.642 94.229C179.151 94.229 176.869 94.7054 174.83 95.6467C172.791 96.5879 171.169 97.9126 170.011 99.5743C168.841 101.248 168.25 103.165 168.25 105.291C168.25 107.662 168.864 109.614 170.069 111.09C171.262 112.554 172.675 113.646 174.274 114.343C175.85 115.029 177.854 115.738 180.252 116.435C182.14 116.946 183.611 117.446 184.642 117.922C185.639 118.387 186.357 118.899 186.785 119.433C187.191 119.956 187.399 120.607 187.399 121.385C187.399 122.536 186.867 123.454 185.766 124.186C184.642 124.941 183.136 125.325 181.294 125.325C179.568 125.325 178.027 124.906 176.707 124.07C175.386 123.245 174.367 122.001 173.66 120.398L173.533 120.107L167.068 123.291L167.196 123.558C168.459 126.208 170.335 128.346 172.768 129.891C175.201 131.437 178.051 132.215 181.248 132.215C183.912 132.215 186.31 131.75 188.373 130.844C190.446 129.926 192.091 128.613 193.25 126.928C194.42 125.243 195.011 123.256 195.011 121.013C195.011 118.643 194.408 116.691 193.215 115.215C192.033 113.751 190.608 112.647 188.963 111.915L188.952 111.95Z" fill="#3592F9"/>
<path d="M217.485 105.697C215.562 104.547 213.279 103.966 210.696 103.966C208.113 103.966 205.819 104.547 203.884 105.697C201.95 106.848 200.444 108.509 199.401 110.636C198.37 112.751 197.849 115.261 197.849 118.084C197.849 120.908 198.37 123.464 199.401 125.579C200.444 127.706 201.95 129.367 203.884 130.518C205.819 131.668 208.113 132.249 210.696 132.249C213.279 132.249 215.573 131.668 217.485 130.518C219.408 129.367 220.902 127.706 221.945 125.579C222.976 123.464 223.497 120.943 223.497 118.084C223.497 115.226 222.976 112.751 221.945 110.636C220.914 108.509 219.408 106.848 217.485 105.697ZM214.635 123.418C213.65 124.719 212.364 125.347 210.696 125.347C209.028 125.347 207.684 124.719 206.711 123.418C205.726 122.105 205.228 120.315 205.228 118.084C205.228 115.853 205.726 114.064 206.711 112.774C207.696 111.484 208.993 110.868 210.696 110.868C212.399 110.868 213.662 111.496 214.635 112.774C215.619 114.064 216.118 115.853 216.118 118.084C216.118 120.315 215.619 122.116 214.635 123.418Z" fill="#3592F9"/>
<path d="M239.16 110.858C240.18 110.858 241.13 111.16 241.964 111.741C242.809 112.333 243.47 113.17 243.933 114.239L244.049 114.518L250.606 111.729L250.479 111.45C249.494 109.184 247.999 107.371 246.053 106.035C244.095 104.699 241.929 104.025 239.612 104.025C236.901 104.025 234.526 104.606 232.534 105.756C230.541 106.907 228.977 108.568 227.888 110.695C226.811 112.81 226.267 115.32 226.267 118.155C226.267 120.99 226.811 123.5 227.888 125.615C228.977 127.742 230.53 129.403 232.534 130.554C234.526 131.704 236.913 132.285 239.612 132.285C241.941 132.285 244.107 131.611 246.053 130.275C247.999 128.938 249.494 127.114 250.479 124.86L250.606 124.581L244.049 121.792L243.933 122.059C243.47 123.094 242.809 123.919 241.952 124.511C241.095 125.092 240.157 125.394 239.172 125.394C237.469 125.394 236.148 124.767 235.164 123.477C234.167 122.187 233.658 120.398 233.658 118.167C233.658 115.936 234.167 114.146 235.187 112.833C236.195 111.532 237.504 110.892 239.184 110.892L239.16 110.858Z" fill="#3592F9"/>
<path d="M254.636 131.611H261.876V104.605H258.157C256.211 104.605 254.636 106.186 254.636 108.138V131.611Z" fill="#3592F9"/>
<path d="M283.935 105.232C282.324 104.396 280.436 103.966 278.339 103.966C274.088 103.966 270.485 105.662 267.658 108.997L267.461 109.23L272.153 113.076L272.338 112.867C273.902 111.112 275.663 110.229 277.575 110.229C278.907 110.229 279.961 110.601 280.703 111.333C281.444 112.065 281.815 113.111 281.815 114.447V115.144H279.382C275.397 115.144 272.211 115.969 269.906 117.596C267.577 119.246 266.396 121.547 266.396 124.429C266.396 126.846 267.183 128.786 268.747 130.169C270.3 131.552 272.327 132.249 274.794 132.249C276.439 132.249 277.934 131.901 279.231 131.215C280.343 130.622 281.212 129.821 281.815 128.81V131.61H289.055V114.075C289.055 112.088 288.603 110.31 287.723 108.788C286.831 107.266 285.568 106.069 283.946 105.232H283.935ZM281.815 121.257V122.093C281.815 123.371 281.34 124.336 280.355 125.045C279.347 125.765 278.142 126.125 276.752 126.125C275.825 126.125 275.084 125.916 274.551 125.51C274.03 125.114 273.787 124.626 273.787 124.011C273.787 123.069 274.273 122.395 275.269 121.965C276.335 121.501 277.98 121.257 280.17 121.257H281.826H281.815Z" fill="#3592F9"/>
<path d="M302.516 124.847C301.752 124.847 301.138 124.231 301.138 123.465V94.8906H297.419C295.473 94.8906 293.897 96.471 293.897 98.4231V125.614C293.897 127.578 294.477 129.112 295.612 130.169C296.736 131.227 298.381 131.75 300.478 131.75H303.941V124.859H302.528L302.516 124.847Z" fill="#3592F9"/>
<path d="M255.169 94.5884C255.979 93.7866 256.999 93.3799 258.227 93.3799C259.455 93.3799 260.486 93.7866 261.308 94.5884C262.131 95.3902 262.548 96.3895 262.548 97.5631C262.548 98.7368 262.131 99.7012 261.285 100.515C260.44 101.328 259.42 101.746 258.227 101.746C257.034 101.746 256.014 101.34 255.192 100.515C254.369 99.7012 253.952 98.7135 253.952 97.5631C253.952 96.4127 254.358 95.3902 255.169 94.5884Z" fill="#3592F9"/>
<path d="M333.829 98.1559C331.315 95.9945 327.816 94.8906 323.426 94.8906H310.671V131.61H318.131V119.525H323.831C328.094 119.525 331.5 118.421 333.944 116.26C336.389 114.087 337.64 111.043 337.64 107.231C337.64 103.42 336.354 100.329 333.829 98.1559ZM330.04 107.231C330.04 108.939 329.392 110.229 328.071 111.182C326.739 112.147 324.85 112.635 322.476 112.635H318.143V101.747H322.476C324.85 101.747 326.739 102.246 328.071 103.234C329.392 104.222 330.04 105.523 330.04 107.231Z" fill="#3592F9"/>
<path d="M363.288 120.629C363.659 119.328 363.844 117.817 363.844 116.121C363.844 113.716 363.334 111.554 362.327 109.73C361.319 107.894 359.882 106.453 358.052 105.454C356.233 104.466 354.09 103.955 351.68 103.955C349.062 103.955 346.757 104.547 344.822 105.709C342.888 106.871 341.37 108.556 340.316 110.718C339.273 112.867 338.74 115.412 338.74 118.305C338.74 121.199 339.285 123.581 340.362 125.673C341.439 127.764 343.003 129.403 345.007 130.541C347 131.669 349.363 132.25 352.039 132.25C354.715 132.25 356.905 131.657 358.816 130.472C360.728 129.286 362.188 127.602 363.184 125.463L363.311 125.196L357.368 122.396L357.229 122.651C356.65 123.732 355.897 124.58 355.005 125.196C354.125 125.8 353.14 126.103 352.086 126.103C350.418 126.103 349.085 125.615 348.112 124.662C347.197 123.755 346.595 122.489 346.305 120.874H363.23L363.288 120.653V120.629ZM346.514 114.726C346.873 113.297 347.475 112.182 348.298 111.391C349.178 110.555 350.313 110.125 351.68 110.125C353.163 110.125 354.345 110.566 355.19 111.45C355.978 112.275 356.407 113.367 356.465 114.726H346.514Z" fill="#3592F9"/>
<path d="M377.376 96.9819H373.657C371.711 96.9819 370.135 98.5623 370.135 100.514V104.605H366.046V111.495H370.135V123.185C370.135 126.114 370.9 128.391 372.406 129.96C373.912 131.529 376.113 132.33 378.94 132.33C380.596 132.33 382.16 132.11 383.573 131.68L383.782 131.61V124.731L383.388 124.847C382.427 125.138 381.442 125.289 380.48 125.289C379.519 125.289 378.696 125.021 378.163 124.51C377.631 123.999 377.364 123.243 377.364 122.267V111.484H384.315V104.593H377.364V96.9819H377.376Z" fill="#3592F9"/>
<path d="M408.063 108.788C407.171 107.266 405.908 106.069 404.286 105.232C402.676 104.396 400.788 103.966 398.691 103.966C394.44 103.966 390.837 105.662 388.01 108.997L387.813 109.23L392.505 113.076L392.702 112.867C394.277 111.112 396.038 110.229 397.938 110.229C399.27 110.229 400.325 110.601 401.066 111.333C401.807 112.065 402.178 113.111 402.178 114.447V115.144H399.757C395.772 115.144 392.586 115.969 390.281 117.596C387.952 119.246 386.771 121.547 386.771 124.429C386.771 126.846 387.558 128.786 389.122 130.169C390.675 131.552 392.702 132.249 395.169 132.249C396.814 132.249 398.309 131.901 399.606 131.215C400.718 130.622 401.587 129.821 402.19 128.81V131.61H409.43V114.075C409.43 112.088 408.978 110.31 408.098 108.788H408.063ZM402.167 121.257V122.093C402.167 123.371 401.692 124.336 400.707 125.045C399.699 125.765 398.494 126.125 397.104 126.125C396.177 126.125 395.436 125.916 394.903 125.51C394.382 125.114 394.138 124.626 394.138 124.011C394.138 123.069 394.625 122.395 395.621 121.965C396.687 121.501 398.332 121.257 400.521 121.257H402.178H402.167Z" fill="#3592F9"/>
<path d="M68.7363 63.4355H119.338C127.563 63.4355 133.541 55.5571 131.317 47.6205C124.945 24.9148 107.139 7.00811 84.5262 0.558931C76.6023 -1.69538 68.7363 4.31224 68.7363 12.5625V63.4355Z" fill="#3592F9"/>
<path d="M63.373 63.4352V12.4809C63.373 4.24217 55.5418 -1.75383 47.6179 0.465622C24.8309 6.83346 6.87476 24.7982 0.468452 47.6202C-1.7558 55.5567 4.22188 63.4468 12.447 63.4468H63.3614L63.373 63.4352Z" fill="#BC65D1"/>
<path d="M63.3732 68.8042H12.4587C4.2336 68.8042 -1.74408 76.6827 0.480171 84.6308C6.88648 107.453 24.8427 125.418 47.6296 131.785C55.542 133.993 63.3732 128.009 63.3732 119.77V68.8158V68.8042Z" fill="#D74E91"/>
<path d="M131.781 132.249V81.3764C131.781 73.1145 123.904 67.1069 115.991 69.3728C93.378 75.822 75.5724 93.7286 69.2009 116.434C66.9766 124.371 72.9543 132.249 81.1794 132.249H131.781Z" fill="url(#paint0_linear_379_17)"/>
<defs>
<linearGradient id="paint0_linear_379_17" x1="98.8344" y1="99.132" x2="130.976" y2="131.175" gradientUnits="userSpaceOnUse">
<stop stop-color="#79F4D3"/>
<stop offset="0.37" stop-color="#6CE1D6"/>
<stop offset="1" stop-color="#51B9DF"/>
</linearGradient>
</defs>
</svg>
